HIERARCHY
ROOT hip
{
  OFFSET 0 0 0
  CHANNELS 6 Xposition Yposition Zposition Zrotation Yrotation Xrotation
  JOINT abdomen
  {
    OFFSET 0 20.6881 -0.73152
    CHANNELS 3 Zrotation Xrotation Yrotation
    JOINT chest
    {
      OFFSET 0 11.7043 -0.48768
      CHANNELS 3 Zrotation Xrotation Yrotation
      JOINT neck
      {
        OFFSET 0 22.1894 -2.19456
        CHANNELS 3 Zrotation Xrotation Yrotation
        JOINT head
        {
          OFFSET -0.24384 7.07133 1.2192
          CHANNELS 3 Zrotation Xrotation Yrotation
          JOINT leftEye
          {
            OFFSET 4.14528 8.04674 8.04672
            CHANNELS 3 Zrotation Xrotation Yrotation
            End Site
            {
              OFFSET 1 0 0
            }
          }
          JOINT rightEye
          {
            OFFSET -3.6576 8.04674 8.04672
            CHANNELS 3 Zrotation Xrotation Yrotation
            End Site
            {
              OFFSET 1 0 0
            }
          }
        }
      }
      JOINT rCollar
      {
        OFFSET -2.68224 19.2634 -4.8768
        CHANNELS 3 Zrotation Xrotation Yrotation
        JOINT rShldr
        {
          OFFSET -8.77824 -1.95073 1.46304
          CHANNELS 3 Zrotation Xrotation Yrotation
          JOINT rForeArm
          {
            OFFSET -28.1742 -1.7115 0.48768
            CHANNELS 3 Zrotation Xrotation Yrotation
            JOINT rHand
            {
              OFFSET -22.5879 0.773209 7.07136
              CHANNELS 3 Zrotation Xrotation Yrotation
              JOINT rThumb1
              {
                OFFSET -1.2192 -0.487915 3.41376
                CHANNELS 3 Zrotation Xrotation Yrotation
                JOINT rThumb2
                {
                  OFFSET -3.37035 -0.52449 3.41376
                  CHANNELS 3 Zrotation Xrotation Yrotation
                  End Site
                  {
                    OFFSET -1.78271 -1.18214 1.43049
                  }
                }
              }
              JOINT rIndex1
              {
                OFFSET -7.75947 0.938293 5.60832
                CHANNELS 3 Zrotation Xrotation Yrotation
                JOINT rIndex2
                {
                  OFFSET -2.54057 -0.884171 1.56538
                  CHANNELS 3 Zrotation Xrotation Yrotation
                  End Site
                  {
                    OFFSET -1.62519 -0.234802 1.16502
                  }
                }
              }
              JOINT rMid1
              {
                OFFSET -8.24714 1.18213 3.41376
                CHANNELS 3 Zrotation Xrotation Yrotation
                JOINT rMid2
                {
                  OFFSET -3.10165 -0.590103 1.0647
                  CHANNELS 3 Zrotation Xrotation Yrotation
                  End Site
                  {
                    OFFSET -2.48547 -0.328903 0.83742
                  }
                }
              }
              JOINT rRing1
              {
                OFFSET -8.82822 0.546677 1.51678
                CHANNELS 3 Zrotation Xrotation Yrotation
                JOINT rRing2
                {
                  OFFSET -2.60934 -0.819778 -0.0198488
                  CHANNELS 3 Zrotation Xrotation Yrotation
                  End Site
                  {
                    OFFSET -2.33842 -0.294052 0.168128
                  }
                }
              }
              JOINT rPinky1
              {
                OFFSET -8.27202 -0.0477905 -0.4584
                CHANNELS 3 Zrotation Xrotation Yrotation
                JOINT rPinky2
                {
                  OFFSET -1.82734 -0.647385 -0.700984
                  CHANNELS 3 Zrotation Xrotation Yrotation
                  End Site
                  {
                    OFFSET -1.69225 -0.51767 -0.607171
                  }
                }
              }
            }
          }
        }
      }
      JOINT lCollar
      {
        OFFSET 2.68224 19.2634 -4.8768
        CHANNELS 3 Zrotation Xrotation Yrotation
        JOINT lShldr
        {
          OFFSET 8.77824 -1.95073 1.46304
          CHANNELS 3 Zrotation Xrotation Yrotation
          JOINT lForeArm
          {
            OFFSET 28.1742 -1.7115 0.48768
            CHANNELS 3 Zrotation Xrotation Yrotation
            JOINT lHand
            {
              OFFSET 22.5879 0.773209 7.07136
              CHANNELS 3 Zrotation Xrotation Yrotation
              JOINT lThumb1
              {
                OFFSET 1.2192 -0.487915 3.41376
                CHANNELS 3 Zrotation Xrotation Yrotation
                JOINT lThumb2
                {
                  OFFSET 3.37035 -0.52449 3.41376
                  CHANNELS 3 Zrotation Xrotation Yrotation
                  End Site
                  {
                    OFFSET 1.78271 -1.18214 1.43049
                  }
                }
              }
              JOINT lIndex1
              {
                OFFSET 7.75947 0.938293 5.60832
                CHANNELS 3 Zrotation Xrotation Yrotation
                JOINT lIndex2
                {
                  OFFSET 2.54057 -0.884171 1.56538
                  CHANNELS 3 Zrotation Xrotation Yrotation
                  End Site
                  {
                    OFFSET 1.62519 -0.234802 1.16502
                  }
                }
              }
              JOINT lMid1
              {
                OFFSET 8.24714 1.18213 3.41376
                CHANNELS 3 Zrotation Xrotation Yrotation
                JOINT lMid2
                {
                  OFFSET 3.10165 -0.590103 1.0647
                  CHANNELS 3 Zrotation Xrotation Yrotation
                  End Site
                  {
                    OFFSET 2.48547 -0.328903 0.83742
                  }
                }
              }
              JOINT lRing1
              {
                OFFSET 8.82822 0.546677 1.51678
                CHANNELS 3 Zrotation Xrotation Yrotation
                JOINT lRing2
                {
                  OFFSET 2.60934 -0.819778 -0.0198488
                  CHANNELS 3 Zrotation Xrotation Yrotation
                  End Site
                  {
                    OFFSET 2.33842 -0.294052 0.168128
                  }
                }
              }
              JOINT lPinky1
              {
                OFFSET 8.27202 -0.0477905 -0.4584
                CHANNELS 3 Zrotation Xrotation Yrotation
                JOINT lPinky2
                {
                  OFFSET 1.82734 -0.647385 -0.700984
                  CHANNELS 3 Zrotation Xrotation Yrotation
                  End Site
                  {
                    OFFSET 1.69225 -0.51767 -0.607171
                  }
                }
              }
            }
          }
        }
      }
    }
  }
  JOINT rButtock
  {
    OFFSET -8.77824 4.35084 1.2192
    CHANNELS 3 Zrotation Xrotation Yrotation
    JOINT rThigh
    {
      OFFSET 0 -1.70687 -2.19456
      CHANNELS 3 Zrotation Xrotation Yrotation
      JOINT rShin
      {
        OFFSET 0 -36.8199 0.73152
        CHANNELS 3 Zrotation Xrotation Yrotation
        JOINT rFoot
        {
          OFFSET 0.73152 -45.1104 -5.12064
          CHANNELS 3 Zrotation Xrotation Yrotation
          End Site
          {
            OFFSET -1.1221 -3.69964 12.103
          }
        }
      }
    }
  }
  JOINT lButtock
  {
    OFFSET 8.77824 4.35084 1.2192
    CHANNELS 3 Zrotation Xrotation Yrotation
    JOINT lThigh
    {
      OFFSET 0 -1.70687 -2.19456
      CHANNELS 3 Zrotation Xrotation Yrotation
      JOINT lShin
      {
        OFFSET 0 -36.8199 0.73152
        CHANNELS 3 Zrotation Xrotation Yrotation
        JOINT lFoot
        {
          OFFSET -0.73152 -45.1104 -5.12064
          CHANNELS 3 Zrotation Xrotation Yrotation
          End Site
          {
            OFFSET 1.1221 -3.69964 12.103
          }
        }
      }
    }
  }
}
MOTION
Frames:	7
Frame Time:	0.00833333
7.08855 82.3798 27.7805 2.2489 -2.4798 -6.2718 -5.08021 10.1929 0.422085 1.53643 -2.62142 -0.204276 -1.71137 1.11872 -2.15139 -0.0171205 -3.33164 -3.81905 -0.0 0.0 0.0 -0.0 0.0 0.0 -1.0679e-13 -2.44061e-13 -1.4437e-13 79.5957 10.7418 1.28661 -12.4076 -5.73906 22.4008 -0.0236074 4.42099 0.622545 1.7153e-09 -3.44634e-09 1.49932e-09 2.9706e-09 -5.96468e-09 2.58224e-09 1.7153e-09 -3.44634e-09 1.49931e-09 7.73091 5.47488 0.417314 1.7153e-09 -3.44634e-09 1.49932e-09 2.90554 0.965183 0.102902 1.71531e-09 -3.44634e-09 1.49932e-09 10.2786 0.731801 0.0259123 1.7153e-09 -3.44633e-09 1.49933e-09 2.22167 -0.733487 -0.20892 -1.06912e-13 -2.44052e-13 -1.44693e-13 -75.2897 31.9333 -1.05172 12.5929 -5.87293 -22.7642 0.0307208 -5.13737 0.723831 2.2281e-09 1.33353e-09 -1.25786e-09 3.85367e-09 2.3129e-09 -2.16812e-09 2.22809e-09 1.33352e-09 -1.25785e-09 -7.73091 5.47488 -0.417314 2.22809e-09 1.33352e-09 -1.25786e-09 -2.90554 0.965183 -0.102902 2.22808e-09 1.33352e-09 -1.25786e-09 -10.2786 0.731801 -0.0259123 2.2281e-09 1.33353e-09 -1.25786e-09 -2.22167 -0.733487 0.20892 -2.03217e-16 0.0 -3.88251e-19 -6.66982 -31.799 -7.03315 -1.90703 68.9456 2.36272 -0.729634 2.03948 -3.72348 2.03217e-16 0.0 3.88251e-19 -9.36437 -10.5327 1.22871 0.047239 32.9523 -0.603524 1.08375 -13.4783 1.33339
7.22541 82.2703 28.6658 2.6789 -1.9826 -6.1673 -5.08686 10.1138 0.121508 1.72947 -2.71901 -0.265214 -1.70387 1.16147 -2.16114 -0.0604506 -3.41001 -3.84309 -0.0 0.0 0.0 -0.0 0.0 0.0 -1.57984e-13 -2.58823e-13 -1.44914e-13 79.6809 10.8725 0.915637 -12.4995 -5.80512 22.5809 -0.0210212 4.13549 0.582226 2.14147e-09 -3.78742e-09 1.72742e-09 3.70751e-09 -6.55478e-09 2.97441e-09 2.14147e-09 -3.78742e-09 1.72741e-09 7.73091 5.47488 0.417314 2.14147e-09 -3.78742e-09 1.72742e-09 2.90554 0.965183 0.102902 2.14148e-09 -3.78742e-09 1.72742e-09 10.2786 0.731801 0.0259123 2.14147e-09 -3.78742e-09 1.72743e-09 2.22167 -0.733487 -0.20892 -1.58144e-13 -2.58813e-13 -1.45262e-13 -74.8523 32.5237 -1.4333 12.7281 -5.97256 -23.0283 0.0390003 -5.62761 0.793488 2.74853e-09 1.79386e-09 -1.10964e-09 4.75314e-09 3.1089e-09 -1.91063e-09 2.74852e-09 1.79385e-09 -1.10964e-09 -7.73091 5.47488 -0.417314 2.74852e-09 1.79386e-09 -1.10964e-09 -2.90554 0.965183 -0.102902 2.74851e-09 1.79386e-09 -1.10964e-09 -10.2786 0.731801 -0.0259123 2.74853e-09 1.79386e-09 -1.10964e-09 -2.22167 -0.733487 0.20892 -2.03217e-16 0.0 -3.88251e-19 -6.52808 -32.4727 -6.94112 -1.71194 67.4589 2.19692 -0.85764 1.03802 -4.1814 2.03217e-16 0.0 3.88251e-19 -9.48225 -10.1125 1.1312 0.0502855 33.169 -0.671126 1.17106 -13.9675 1.56946
7.24459 82.1757 29.4559 2.631 -1.6096 -5.9222 -4.99116 10.0119 -0.137857 1.925 -2.75903 -0.311214 -1.72107 1.00379 -2.17926 -0.0607164 -3.38709 -3.87068 -0.0 0.0 0.0 -0.0 0.0 0.0 -1.68878e-13 -1.97454e-13 -1.04791e-13 79.7489 10.841 0.66391 -12.5577 -5.84718 22.6951 -0.0213613 4.1521 0.584588 2.07626e-09 -3.05193e-09 1.45786e-09 3.59333e-09 -5.28152e-09 2.50914e-09 2.07627e-09 -3.05193e-09 1.45785e-09 7.73091 5.47488 0.417314 2.07626e-09 -3.05193e-09 1.45786e-09 2.90554 0.965183 0.102902 2.07627e-09 -3.05193e-09 1.45786e-09 10.2786 0.731801 0.0259123 2.07626e-09 -3.05193e-09 1.45787e-09 2.22167 -0.733487 -0.20892 -1.69006e-13 -1.97445e-13 -1.05111e-13 -74.4042 32.6627 -1.89061 12.8766 -6.08299 -23.3195 0.0362418 -5.43502 0.766147 2.57373e-09 1.96799e-09 -5.87285e-10 4.45014e-09 3.40815e-09 -1.00833e-09 2.57372e-09 1.96799e-09 -5.87281e-10 -7.73091 5.47488 -0.417314 2.57372e-09 1.96798e-09 -5.87289e-10 -2.90554 0.965183 -0.102902 2.57371e-09 1.96798e-09 -5.87286e-10 -10.2786 0.731801 -0.0259123 2.57373e-09 1.96799e-09 -5.87283e-10 -2.22167 -0.733487 0.20892 -2.03217e-16 0.0 -3.88251e-19 -6.20448 -33.1609 -6.70653 -1.52315 65.7708 2.03267 -0.984708 0.34109 -4.72859 2.03217e-16 0.0 3.88251e-19 -9.50136 -9.72743 1.01312 0.0505812 33.2758 -0.733625 1.30209 -14.4047 1.9514
7.14537 82.1398 30.3158 2.2269 -1.6443 -5.7548 -4.82901 9.89905 -0.360037 2.12231 -2.76208 -0.344369 -1.75149 0.710911 -2.20418 -0.0351661 -3.31365 -3.90392 -0.0 0.0 0.0 -0.0 0.0 0.0 -1.54619e-13 -8.48114e-14 -3.78436e-14 79.8019 10.7064 0.492137 -12.5945 -5.87404 22.7669 -0.0236459 4.38377 0.617319 1.69373e-09 -1.59524e-09 8.5787e-10 2.92942e-09 -2.75993e-09 1.47457e-09 1.69373e-09 -1.59524e-09 8.5786e-10 7.73091 5.47488 0.417314 1.69373e-09 -1.59524e-09 8.57873e-10 2.90554 0.965183 0.102902 1.69373e-09 -1.59524e-09 8.57868e-10 10.2786 0.731801 0.0259123 1.69372e-09 -1.59523e-09 8.57877e-10 2.22167 -0.733487 -0.20892 -1.54672e-13 -8.48018e-14 -3.80983e-14 -73.9528 32.4994 -2.39995 13.0311 -6.19902 -23.6237 0.0274742 -4.80496 0.676813 1.95488e-09 1.97464e-09 2.02696e-10 3.37909e-09 3.41654e-09 3.55375e-10 1.95487e-09 1.97464e-09 2.02703e-10 -7.73091 5.47488 -0.417314 1.95487e-09 1.97463e-09 2.02693e-10 -2.90554 0.965183 -0.102902 1.95486e-09 1.97464e-09 2.02696e-10 -10.2786 0.731801 -0.0259123 1.95488e-09 1.97464e-09 2.02696e-10 -2.22167 -0.733487 0.20892 -2.03217e-16 0.0 -3.88251e-19 -5.73741 -33.8389 -6.34283 -1.34429 63.8881 1.87397 -1.11224 -0.0993136 -5.37346 2.03217e-16 0.0 3.88251e-19 -9.45326 -9.3596 0.873788 0.047991 33.2934 -0.791401 1.46661 -14.7922 2.43687
7.12806 82.1137 31.2293 2.2595 -1.7909 -5.6088 -4.64414 9.7956 -0.56238 2.30398 -2.75609 -0.372319 -1.78296 0.397561 -2.23169 0.00702983 -3.22831 -3.94093 -0.0 0.0 0.0 -0.0 0.0 0.0 -1.27352e-13 2.83411e-14 2.75138e-14 79.8598 10.5345 0.344615 -12.6165 -5.89032 22.8097 -0.0267532 4.66934 0.657699 1.20137e-09 -9.94713e-11 2.30881e-10 2.07576e-09 -1.7085e-10 3.93883e-10 1.20137e-09 -9.94718e-11 2.30872e-10 7.73091 5.47488 0.417314 1.20137e-09 -9.94731e-11 2.30887e-10 2.90554 0.965183 0.102902 1.20137e-09 -9.94724e-11 2.30882e-10 10.2786 0.731801 0.0259123 1.20137e-09 -9.94686e-11 2.30888e-10 2.22167 -0.733487 -0.20892 -1.27331e-13 2.83501e-14 2.73267e-14 -73.5124 32.2311 -2.90845 13.1841 -6.31484 -23.926 0.019892 -4.09906 0.577017 1.20735e-09 1.8236e-09 9.20493e-10 2.08572e-09 3.15231e-09 1.59396e-09 1.20734e-09 1.82361e-09 9.20504e-10 -7.73091 5.47488 -0.417314 1.20734e-09 1.8236e-09 9.2049e-10 -2.90554 0.965183 -0.102902 1.20734e-09 1.8236e-09 9.20494e-10 -10.2786 0.731801 -0.0259123 1.20736e-09 1.8236e-09 9.20489e-10 -2.22167 -0.733487 0.20892 -2.03217e-16 0.0 -3.88251e-19 -5.21522 -34.4065 -5.88796 -1.17692 61.8096 1.72333 -1.24209 -0.423035 -6.0902 2.03217e-16 0.0 3.88251e-19 -9.37918 -8.91115 0.727769 0.042623 33.1604 -0.842193 1.63288 -15.1211 2.92283
7.15769 82.0675 32.0656 2.4321 -1.79 -5.33 -4.48012 9.7219 -0.762258 2.4525 -2.76903 -0.402706 -1.80306 0.178462 -2.25751 0.0566028 -3.1697 -3.97983 -0.0 0.0 0.0 -0.0 0.0 0.0 -9.92215e-14 9.12385e-14 6.28657e-14 79.9425 10.3912 0.165568 -12.6304 -5.90058 22.8367 -0.0289084 4.84764 0.682938 8.06692e-10 7.53232e-10 -1.19668e-10 1.39234e-09 1.3049e-09 -2.09762e-10 8.06698e-10 7.53232e-10 -1.19678e-10 7.73091 5.47488 0.417314 8.06692e-10 7.5323e-10 -1.19662e-10 2.90554 0.965183 0.102902 8.06698e-10 7.53231e-10 -1.19667e-10 10.2786 0.731801 0.0259123 8.0669e-10 7.53234e-10 -1.19662e-10 2.22167 -0.733487 -0.20892 -9.91721e-14 9.12462e-14 6.27166e-14 -73.0886 32.0556 -3.36789 13.3279 -6.42478 -24.2115 0.0166288 -3.67899 0.517768 6.46545e-10 1.52468e-09 1.22629e-09 1.11571e-09 2.63371e-09 2.12088e-09 6.46534e-10 1.5247e-09 1.22631e-09 -7.73091 5.47488 -0.417314 6.46535e-10 1.52468e-09 1.22629e-09 -2.90554 0.965183 -0.102902 6.46539e-10 1.52469e-09 1.2263e-09 -10.2786 0.731801 -0.0259123 6.4655e-10 1.52468e-09 1.22629e-09 -2.22167 -0.733487 0.20892 -2.03217e-16 0.0 -3.88251e-19 -4.73277 -34.7633 -5.38318 -1.02173 59.5341 1.5823 -1.38107 -0.769465 -6.85333 2.03217e-16 0.0 3.88251e-19 -9.31978 -8.28429 0.589742 0.0344551 32.815 -0.883691 1.76617 -15.3837 3.30545
7.17045 82.0722 32.9246 2.4552 -1.5858 -5.1906 -4.34547 9.70439 -0.955359 2.55007 -2.81496 -0.435482 -1.80767 0.0964082 -2.28261 0.121406 -3.14129 -4.0246 -0.0 0.0 0.0 -0.0 0.0 0.0 -6.59557e-14 7.15058e-14 5.12694e-14 80.0714 10.3134 -0.0766647 -12.6534 -5.91699 22.8825 -0.0287881 4.82847 0.680234 5.19737e-10 5.94627e-10 1.29629e-12 8.9761e-10 1.02963e-09 6.35852e-13 5.19745e-10 5.94627e-10 1.28533e-12 7.73091 5.47488 0.417314 5.19736e-10 5.94627e-10 1.30181e-12 2.90554 0.965183 0.102902 5.19743e-10 5.94628e-10 1.29699e-12 10.2786 0.731801 0.0259123 5.19735e-10 5.9463e-10 1.29995e-12 2.22167 -0.733487 -0.20892 -6.59536e-14 7.15105e-14 5.11129e-14 -72.67 32.0232 -3.77231 13.4576 -6.5248 -24.4697 0.0167312 -3.65949 0.515038 3.40844e-10 9.08621e-10 8.4055e-10 5.87689e-10 1.56886e-09 1.45303e-09 3.40835e-10 9.08638e-10 8.40564e-10 -7.73091 5.47488 -0.417314 3.40838e-10 9.0862e-10 8.40546e-10 -2.90554 0.965183 -0.102902 3.40841e-10 9.08626e-10 8.40551e-10 -10.2786 0.731801 -0.0259123 3.40849e-10 9.08625e-10 8.40542e-10 -2.22167 -0.733487 0.20892 -2.03217e-16 0.0 -3.88251e-19 -4.31931 -34.8343 -4.84778 -0.878141 57.0188 1.45114 -1.54341 -1.19506 -7.70443 2.03217e-16 0.0 3.88251e-19 -9.28565 -7.39437 0.465683 0.0216158 32.1783 -0.914263 1.85477 -15.5627 3.56071
